<svg version="1.1" id="Layer_1" xmlns="http://www.w3.org/2000/svg" x="0" y="0" viewBox="0 0 219 44.7" xml:space="preserve"><style>.st0{fill:#fff}</style><path class="st0" d="M117.1 1.2l-10.4 28.9c0 .1-.2.2-.3.2h-.9c-.1 0-.3-.1-.3-.2l-10.7-29c0-.1-.2-.2-.3-.2H82.3c-.2 0-.4.2-.3.4l15.3 42c0 .1.2.2.3.2h16.7c.1 0 .3-.1.3-.2l15-42c.1-.2-.1-.4-.3-.4h-11.9c-.1.1-.3.2-.3.3zM71.2 30.4l7.2 7.4c.1.1.1.3 0 .5-3.9 3.8-11 6.4-17.2 6.4-12.7 0-22.6-9.3-22.6-22.5C38.6 9.3 48.1 0 60.6 0c13.3 0 21.1 10 21.2 25.9 0 .2-.1.3-.3.3h-30c-.2 0-.4.2-.3.4 1.5 4.4 5.1 7.3 10 7.3 3.3 0 7.3-1.5 9.6-3.6.1 0 .3 0 .4.1zM51.7 17.6h18.2c.2 0 .4-.2.3-.4-1.2-4-4.3-6.5-9-6.5-4.4 0-8.1 2.5-9.7 6.5-.2.2-.1.4.2.4zM162.3 30.4l7.2 7.4c.1.1.1.3 0 .5-3.9 3.8-11 6.4-17.2 6.4-12.7 0-22.6-9.3-22.6-22.5 0-12.9 9.5-22.2 22-22.2 13.3 0 21.1 10 21.2 25.9 0 .2-.1.3-.3.3h-30c-.2 0-.4.2-.3.4 1.5 4.4 5.1 7.3 10 7.3 3.3 0 7.3-1.5 9.6-3.6.1 0 .3 0 .4.1zm-19.5-12.8H161c.2 0 .4-.2.3-.4-1.2-4-4.3-6.5-9-6.5-4.4 0-8.1 2.5-9.7 6.5-.2.2-.1.4.2.4zM219 16.5v26.8c0 .2-.1.3-.3.3h-11c-.2 0-.3-.1-.3-.3V19.1c0-5.3-3.3-8.9-8.1-8.9-5 0-8.9 3.6-8.9 8.3l-.1-.2v25.2c0 .2-.1.3-.3.3h-11.4c-.2 0-.3-.1-.3-.3v-42c0-.2.1-.3.3-.3H190c.2 0 .3.1.3.3v4c0 .3.4.4.6.2C193.5 2.1 198 0 203.2 0c9.2 0 15.8 6.9 15.8 16.5zM19.2 17.2c-5.8-1.6-7.5-2.2-7.5-4.5 0-1.5 2.1-2.6 5-2.6 3.5 0 7.8 1.3 11.6 3.6.2.1.4 0 .5-.2l3.4-8.7c.1-.1 0-.3-.1-.4C27.7 1.7 22.2 0 16.7 0 6.7 0 0 5.8.1 13.9c.1 8.4 6.9 10.8 15.6 13 4.4 1.2 7.5 2 7.5 4.6 0 1.9-2.3 3.2-5.5 3.2-5.5 0-10.2-1.9-13.9-4.5-.2-.1-.4 0-.5.2l-3.2 9c-.1.1 0 .3.1.4 4.9 3.2 11.2 5 17.2 5 10.5 0 17.3-5.4 17.3-13.8 0-9.4-8.1-11.9-15.5-13.8z"></path></svg>
