<svg xmlns="http://www.w3.org/2000/svg" fill="white" id="funhasukux-Layer_1" x="0" y="0" viewBox="0 0 39.3 70.2" xml:space="preserve">
  <style></style>
  <path class="funhasukux-st0" fill="white" d="M24.4 0h14.9v3.4H24.4zM24.4 37.8h14.9v3.4H24.4zM24.4 31.5h7.5v3.4h-7.5zM24.4 25.2h14.9v3.4H24.4zM24.4 18.9h7.5v3.4h-7.5zM24.4 12.6h14.9V16H24.4zM24.4 6.3h7.5v3.4h-7.5z"></path>
  <path class="funhasukux-st0" fill="white" d="M20.2 42.4V1.5c0-.8-.7-1.5-1.5-1.5h-8.4c-.8 0-1.5.7-1.5 1.5v40.8C3.6 44.6 0 49.7 0 55.7c0 8 6.5 14.5 14.5 14.5S29 63.7 29 55.7c0-6-3.6-11.1-8.8-13.3z"></path>
</svg>
